# xmcd CD database file
#
# Track frame offsets:
#	150
#	15919
#	39930
#	56724
#	79233
#	93090
#	116535
#	141751
#	163290
#	189180
#	205974
#	223220
#	246356
#
# Disc length: 3523 seconds
#
# Revision: 2
# Processed by: cddbd v1.4b41PL1 Copyright (c) Steve Scherf et al.
# Submitted via: Feurio! 1.50.2ß - http://www.feurio.com
#
DISCID=af0dc10d
DTITLE=Various Artist - Oldis
DYEAR=1900
DGENRE=
TTITLE0=Paul McCartney and Wings - Wonderful Christmastime
TTITLE1=PAUL MCCARTNEY - JOHN LENNON TRIBUTE
TTITLE2=Ringo Starr - With A Little Help From My Fri
TTITLE3=C.C. Catch - Heartbreak hotel
TTITLE4=Carlos Santana - Evil Ways
TTITLE5=Catch-22 - Kristina She Don't Know I Exis
TTITLE6=Deep Purple - Smoke On The Water
TTITLE7=Lynyrd Skynyrd - Sweet Home Alabama
TTITLE8=Pink Floyd - The Wall
TTITLE9=Ringo Starr - With A Little Help From My Fri
TTITLE10=Rolling Stones - Satisfaction~1
TTITLE11=Santana - Santana   Europa
TTITLE12=Suzy Quatro and Chris Norman - Strumplin' In
EXTD=
EXTT0=
EXTT1=
EXTT2=, AG# 1F13C204
EXTT3=
EXTT4=
EXTT5=
EXTT6=
EXTT7=
EXTT8=
EXTT9=, AG# 1F13C204
EXTT10=
EXTT11=
EXTT12=
PLAYORDER=
